<svg version="1" xmlns="http://www.w3.org/2000/svg" width="666.667" height="666.667" viewBox="0 0 500.000000 500.000000"><path d="M160.2 73.7l.3 20.8 79.5.2c43.7 0 79.8.2 80.1.2.7.1.3 231.1-.5 237.6-4.3 36.4-21.2 58.9-49.6 65.9-12.4 3-30.3 4-41.8 2.2-17.2-2.7-37.3-13.5-51.3-27.5-6.5-6.5-14.1-15.6-15.8-18.9-1.9-3.7-.6-4.6-22.3 16.3-5.3 5.2-9.9 9.8-10.2 10.4-.3.5 1.9 4.4 5 8.7 11.6 16.2 28.2 30.7 45.2 39.7 8.4 4.4 26.2 11.1 32.6 12.3 15.9 3 20.2 3.3 36.6 2.9 17.9-.4 18.8-.5 32.5-3.1 43.3-8.4 74-37.4 84.4-79.6 2.4-9.7 3.4-15.2 4.7-25.8.4-3 .7-67.9.8-144.3l.1-138.7H160l.2 20.7z"/></svg>